<mxfile host="www.draw.io" modified="2019-10-26T08:31:09.837Z" agent="Mozilla/5.0 (Windows NT 10.0; Win64; x64) AppleWebKit/537.36 (KHTML, like Gecko) Chrome/77.0.3865.120 Safari/537.36" etag="T2OBJVSbZ_gJVx57yhfL" version="12.1.7" type="github" pages="1">
  <diagram id="ekdiAKRqjQZO_SCNcehw" name="Page-1">
    <mxGraphModel dx="950" dy="517" grid="1" gridSize="10" guides="1" tooltips="1" connect="1" arrows="1" fold="1" page="1" pageScale="1" pageWidth="1920" pageHeight="1200" math="0" shadow="0">
      <root>
        <mxCell id="0"/>
        <mxCell id="1" parent="0"/>
        <mxCell id="3DRjRIgtUkf3iMdszM2m-20" style="edgeStyle=orthogonalEdgeStyle;rounded=0;orthogonalLoop=1;jettySize=auto;html=1;entryX=0.5;entryY=0;entryDx=0;entryDy=0;" parent="1" source="3DRjRIgtUkf3iMdszM2m-1" target="3DRjRIgtUkf3iMdszM2m-19" edge="1">
          <mxGeometry relative="1" as="geometry">
            <Array as="points">
              <mxPoint x="785" y="410"/>
              <mxPoint x="785" y="410"/>
            </Array>
          </mxGeometry>
        </mxCell>
        <mxCell id="3DRjRIgtUkf3iMdszM2m-69" style="edgeStyle=orthogonalEdgeStyle;rounded=0;orthogonalLoop=1;jettySize=auto;html=1;entryX=0;entryY=0.5;entryDx=0;entryDy=0;" parent="1" source="3DRjRIgtUkf3iMdszM2m-1" target="3DRjRIgtUkf3iMdszM2m-68" edge="1">
          <mxGeometry relative="1" as="geometry"/>
        </mxCell>
        <mxCell id="3DRjRIgtUkf3iMdszM2m-1" value="Жидтель&lt;br&gt;" style="shape=umlActor;verticalLabelPosition=bottom;labelBackgroundColor=#ffffff;verticalAlign=top;html=1;outlineConnect=0;" parent="1" vertex="1">
          <mxGeometry x="775.5" y="320" width="20" height="40" as="geometry"/>
        </mxCell>
        <mxCell id="3DRjRIgtUkf3iMdszM2m-6" value="" style="edgeStyle=orthogonalEdgeStyle;rounded=0;orthogonalLoop=1;jettySize=auto;html=1;" parent="1" source="3DRjRIgtUkf3iMdszM2m-4" edge="1">
          <mxGeometry relative="1" as="geometry">
            <mxPoint x="530.5" y="377.5" as="targetPoint"/>
          </mxGeometry>
        </mxCell>
        <mxCell id="3DRjRIgtUkf3iMdszM2m-50" style="edgeStyle=orthogonalEdgeStyle;rounded=0;orthogonalLoop=1;jettySize=auto;html=1;entryX=0.5;entryY=0;entryDx=0;entryDy=0;" parent="1" source="3DRjRIgtUkf3iMdszM2m-4" target="3DRjRIgtUkf3iMdszM2m-48" edge="1">
          <mxGeometry relative="1" as="geometry"/>
        </mxCell>
        <mxCell id="3DRjRIgtUkf3iMdszM2m-4" value="Босс&lt;br&gt;" style="shape=umlActor;verticalLabelPosition=bottom;labelBackgroundColor=#ffffff;verticalAlign=top;html=1;outlineConnect=0;" parent="1" vertex="1">
          <mxGeometry x="395.5" y="347.5" width="30" height="60" as="geometry"/>
        </mxCell>
        <mxCell id="3DRjRIgtUkf3iMdszM2m-8" value="Создать жидтеля" style="ellipse;whiteSpace=wrap;html=1;" parent="1" vertex="1">
          <mxGeometry x="530.5" y="360" width="70" height="35" as="geometry"/>
        </mxCell>
        <mxCell id="3DRjRIgtUkf3iMdszM2m-47" style="edgeStyle=orthogonalEdgeStyle;rounded=0;orthogonalLoop=1;jettySize=auto;html=1;entryX=0.5;entryY=0;entryDx=0;entryDy=0;dashed=1;" parent="1" source="3DRjRIgtUkf3iMdszM2m-19" target="3DRjRIgtUkf3iMdszM2m-25" edge="1">
          <mxGeometry relative="1" as="geometry">
            <Array as="points">
              <mxPoint x="785" y="530"/>
              <mxPoint x="785" y="530"/>
            </Array>
          </mxGeometry>
        </mxCell>
        <mxCell id="3DRjRIgtUkf3iMdszM2m-19" value="Выбрать этаж" style="ellipse;whiteSpace=wrap;html=1;" parent="1" vertex="1">
          <mxGeometry x="745.5" y="472" width="80" height="50" as="geometry"/>
        </mxCell>
        <mxCell id="3DRjRIgtUkf3iMdszM2m-25" value="&quot;Ход&quot;" style="ellipse;whiteSpace=wrap;html=1;" parent="1" vertex="1">
          <mxGeometry x="745.5" y="582.5" width="80" height="50" as="geometry"/>
        </mxCell>
        <mxCell id="3DRjRIgtUkf3iMdszM2m-46" style="edgeStyle=orthogonalEdgeStyle;rounded=0;orthogonalLoop=1;jettySize=auto;html=1;entryX=0;entryY=0.6;entryDx=0;entryDy=0;entryPerimeter=0;dashed=1;" parent="1" source="3DRjRIgtUkf3iMdszM2m-26" target="3DRjRIgtUkf3iMdszM2m-44" edge="1">
          <mxGeometry relative="1" as="geometry">
            <Array as="points">
              <mxPoint x="440" y="650"/>
              <mxPoint x="440" y="650"/>
            </Array>
          </mxGeometry>
        </mxCell>
        <mxCell id="3DRjRIgtUkf3iMdszM2m-53" style="edgeStyle=orthogonalEdgeStyle;rounded=0;orthogonalLoop=1;jettySize=auto;html=1;entryX=0.5;entryY=0;entryDx=0;entryDy=0;dashed=1;" parent="1" source="3DRjRIgtUkf3iMdszM2m-26" target="3DRjRIgtUkf3iMdszM2m-34" edge="1">
          <mxGeometry relative="1" as="geometry">
            <Array as="points">
              <mxPoint x="300" y="607"/>
            </Array>
          </mxGeometry>
        </mxCell>
        <mxCell id="3DRjRIgtUkf3iMdszM2m-54" style="edgeStyle=orthogonalEdgeStyle;rounded=0;orthogonalLoop=1;jettySize=auto;html=1;entryX=0.5;entryY=0;entryDx=0;entryDy=0;dashed=1;" parent="1" source="3DRjRIgtUkf3iMdszM2m-26" target="3DRjRIgtUkf3iMdszM2m-42" edge="1">
          <mxGeometry relative="1" as="geometry">
            <Array as="points">
              <mxPoint x="505" y="607"/>
            </Array>
          </mxGeometry>
        </mxCell>
        <mxCell id="3DRjRIgtUkf3iMdszM2m-65" style="edgeStyle=orthogonalEdgeStyle;rounded=0;orthogonalLoop=1;jettySize=auto;html=1;exitX=1;exitY=0;exitDx=0;exitDy=0;entryX=0;entryY=0.5;entryDx=0;entryDy=0;dashed=1;" parent="1" source="3DRjRIgtUkf3iMdszM2m-26" target="3DRjRIgtUkf3iMdszM2m-64" edge="1">
          <mxGeometry relative="1" as="geometry">
            <Array as="points">
              <mxPoint x="439" y="570"/>
              <mxPoint x="590" y="570"/>
            </Array>
          </mxGeometry>
        </mxCell>
        <mxCell id="3DRjRIgtUkf3iMdszM2m-72" style="edgeStyle=orthogonalEdgeStyle;rounded=0;orthogonalLoop=1;jettySize=auto;html=1;entryX=0.994;entryY=0.6;entryDx=0;entryDy=0;entryPerimeter=0;dashed=1;" parent="1" source="3DRjRIgtUkf3iMdszM2m-26" target="3DRjRIgtUkf3iMdszM2m-45" edge="1">
          <mxGeometry relative="1" as="geometry">
            <Array as="points">
              <mxPoint x="380" y="800"/>
            </Array>
          </mxGeometry>
        </mxCell>
        <mxCell id="3DRjRIgtUkf3iMdszM2m-26" value="Старт" style="ellipse;whiteSpace=wrap;html=1;" parent="1" vertex="1">
          <mxGeometry x="370.5" y="582.5" width="80" height="50" as="geometry"/>
        </mxCell>
        <mxCell id="3DRjRIgtUkf3iMdszM2m-34" value="Пауза/запуск" style="ellipse;whiteSpace=wrap;html=1;" parent="1" vertex="1">
          <mxGeometry x="260" y="650" width="80" height="50" as="geometry"/>
        </mxCell>
        <mxCell id="3DRjRIgtUkf3iMdszM2m-42" value="Остановка" style="ellipse;whiteSpace=wrap;html=1;" parent="1" vertex="1">
          <mxGeometry x="465.5" y="650" width="80" height="50" as="geometry"/>
        </mxCell>
        <mxCell id="3DRjRIgtUkf3iMdszM2m-44" value="Замедление" style="ellipse;whiteSpace=wrap;html=1;" parent="1" vertex="1">
          <mxGeometry x="450.5" y="770" width="80" height="50" as="geometry"/>
        </mxCell>
        <mxCell id="3DRjRIgtUkf3iMdszM2m-45" value="Ускорение" style="ellipse;whiteSpace=wrap;html=1;" parent="1" vertex="1">
          <mxGeometry x="290.5" y="770" width="80" height="50" as="geometry"/>
        </mxCell>
        <mxCell id="3DRjRIgtUkf3iMdszM2m-49" style="edgeStyle=orthogonalEdgeStyle;rounded=0;orthogonalLoop=1;jettySize=auto;html=1;exitX=0.5;exitY=1;exitDx=0;exitDy=0;entryX=0.5;entryY=0;entryDx=0;entryDy=0;dashed=1;" parent="1" source="3DRjRIgtUkf3iMdszM2m-48" target="3DRjRIgtUkf3iMdszM2m-26" edge="1">
          <mxGeometry relative="1" as="geometry"/>
        </mxCell>
        <mxCell id="Gyit4R5NULof4jvEVy84-1" style="edgeStyle=orthogonalEdgeStyle;rounded=0;orthogonalLoop=1;jettySize=auto;html=1;entryX=1;entryY=0.5;entryDx=0;entryDy=0;dashed=1;" edge="1" parent="1" source="3DRjRIgtUkf3iMdszM2m-48" target="3DRjRIgtUkf3iMdszM2m-51">
          <mxGeometry relative="1" as="geometry"/>
        </mxCell>
        <mxCell id="3DRjRIgtUkf3iMdszM2m-48" value="Выбор режима" style="ellipse;whiteSpace=wrap;html=1;" parent="1" vertex="1">
          <mxGeometry x="370.5" y="462" width="80" height="50" as="geometry"/>
        </mxCell>
        <mxCell id="3DRjRIgtUkf3iMdszM2m-51" value="Импорт настроек" style="ellipse;whiteSpace=wrap;html=1;" parent="1" vertex="1">
          <mxGeometry x="190" y="462" width="80" height="50" as="geometry"/>
        </mxCell>
        <mxCell id="3DRjRIgtUkf3iMdszM2m-57" value="&amp;lt;&amp;lt;extends&amp;gt;&amp;gt;" style="text;html=1;strokeColor=none;fillColor=none;align=center;verticalAlign=middle;whiteSpace=wrap;rounded=0;" parent="1" vertex="1">
          <mxGeometry x="300" y="467" width="40" height="20" as="geometry"/>
        </mxCell>
        <mxCell id="3DRjRIgtUkf3iMdszM2m-59" value="&amp;lt;&amp;lt;extends&amp;gt;&amp;gt;" style="text;html=1;strokeColor=none;fillColor=none;align=center;verticalAlign=middle;whiteSpace=wrap;rounded=0;" parent="1" vertex="1">
          <mxGeometry x="525.5" y="602.5" width="40" height="20" as="geometry"/>
        </mxCell>
        <mxCell id="3DRjRIgtUkf3iMdszM2m-60" value="&amp;lt;&amp;lt;extends&amp;gt;&amp;gt;" style="text;html=1;strokeColor=none;fillColor=none;align=center;verticalAlign=middle;whiteSpace=wrap;rounded=0;" parent="1" vertex="1">
          <mxGeometry x="240" y="607.5" width="40" height="20" as="geometry"/>
        </mxCell>
        <mxCell id="3DRjRIgtUkf3iMdszM2m-61" value="&amp;lt;&amp;lt;extends&amp;gt;&amp;gt;" style="text;html=1;strokeColor=none;fillColor=none;align=center;verticalAlign=middle;whiteSpace=wrap;rounded=0;" parent="1" vertex="1">
          <mxGeometry x="320" y="720" width="40" height="20" as="geometry"/>
        </mxCell>
        <mxCell id="3DRjRIgtUkf3iMdszM2m-62" value="&amp;lt;&amp;lt;extends&amp;gt;&amp;gt;" style="text;html=1;strokeColor=none;fillColor=none;align=center;verticalAlign=middle;whiteSpace=wrap;rounded=0;direction=west;" parent="1" vertex="1">
          <mxGeometry x="460" y="720" width="40" height="20" as="geometry"/>
        </mxCell>
        <mxCell id="3DRjRIgtUkf3iMdszM2m-63" value="&amp;lt;&amp;lt;includes&amp;gt;&amp;gt;" style="text;html=1;strokeColor=none;fillColor=none;align=center;verticalAlign=middle;whiteSpace=wrap;rounded=0;" parent="1" vertex="1">
          <mxGeometry x="425.5" y="530" width="40" height="20" as="geometry"/>
        </mxCell>
        <mxCell id="3DRjRIgtUkf3iMdszM2m-64" value="Пожар" style="ellipse;whiteSpace=wrap;html=1;" parent="1" vertex="1">
          <mxGeometry x="590" y="552.5" width="80" height="50" as="geometry"/>
        </mxCell>
        <mxCell id="3DRjRIgtUkf3iMdszM2m-66" value="&amp;lt;&amp;lt;extends&amp;gt;&amp;gt;" style="text;html=1;strokeColor=none;fillColor=none;align=center;verticalAlign=middle;whiteSpace=wrap;rounded=0;" parent="1" vertex="1">
          <mxGeometry x="525.5" y="552.5" width="40" height="20" as="geometry"/>
        </mxCell>
        <mxCell id="3DRjRIgtUkf3iMdszM2m-68" value="Эвакуация" style="ellipse;whiteSpace=wrap;html=1;" parent="1" vertex="1">
          <mxGeometry x="860" y="315" width="80" height="50" as="geometry"/>
        </mxCell>
        <mxCell id="3DRjRIgtUkf3iMdszM2m-70" value="&amp;lt;&amp;lt;includes&amp;gt;&amp;gt;" style="text;html=1;strokeColor=none;fillColor=none;align=center;verticalAlign=middle;whiteSpace=wrap;rounded=0;" parent="1" vertex="1">
          <mxGeometry x="805.5" y="542.5" width="40" height="20" as="geometry"/>
        </mxCell>
      </root>
    </mxGraphModel>
  </diagram>
</mxfile>
